<?xml version="1.0" encoding="utf-8"?>
<!-- Generator: Adobe Illustrator 19.0.1, SVG Export Plug-In . SVG Version: 6.00 Build 0)  -->
<svg version="1.1" id="Слой_1" xmlns="http://www.w3.org/2000/svg" xmlns:xlink="http://www.w3.org/1999/xlink" x="0px" y="0px"
	 viewBox="-199 188 100 125" style="enable-background:new -199 188 100 125;" xml:space="preserve">
<style type="text/css">
	.st0{fill:none;}
	.st1{fill:#42FC7C;}
</style>
<g>
	<path class="st0" d="M-134.5,243.2c-0.9,0-1.6,0.4-2.4,0.7c-0.9,0.5-1.9,0.9-3.6,0.8c-2.4-1.1-13.9-12.7-15-15.1
		c-0.1-1.5,0.4-2.5,0.8-3.4c0.6-1.1,1.5-3-0.5-5l-0.8-0.8c-5.4-5.4-6.9-6.9-10.1-6.9c0,0,0,0,0,0c-3.2,0-7.6,5.2-7.5,7.5
		c0.1,5.9,4.5,16.2,14.1,25.9c9.9,9.9,21.8,15.8,27.7,15.9h0c0,0,0,0,0,0c2.4,0,7.3-4.3,7.4-7.2c0.2-3.4-1.3-4.9-7.5-11.1
		C-132.7,243.5-133.6,243.2-134.5,243.2z"/>
	<path class="st1" d="M-149,188.9c-27.1,0-49.1,22-49.1,49.1s22,49.1,49.1,49.1c27.1,0,49.1-22,49.1-49.1S-121.9,188.9-149,188.9z
		 M-124.4,255.5c-0.2,2.9-5,7.2-7.4,7.2c0,0,0,0,0,0h0c-5.8-0.1-17.8-6-27.7-15.9c-9.7-9.7-14-20-14.1-25.9c0-2.3,4.3-7.4,7.5-7.5
		c0,0,0,0,0,0c3.2,0,4.7,1.5,10.1,6.9l0.8,0.8c2,2,1.1,3.9,0.5,5c-0.4,0.9-0.9,1.8-0.8,3.4c1,2.4,12.6,14.1,15,15.1
		c1.6,0.2,2.6-0.3,3.6-0.8c0.7-0.3,1.5-0.7,2.4-0.7c1,0,1.8,0.4,2.6,1.2C-125.7,250.6-124.2,252.1-124.4,255.5z"/>
</g>
</svg>
